<?xml version="1.0" encoding="utf-8"?>
<!-- Generator: Adobe Illustrator 26.2.1, SVG Export Plug-In . SVG Version: 6.00 Build 0)  -->
<svg version="1.0" id="Capa_1" xmlns="http://www.w3.org/2000/svg" xmlns:xlink="http://www.w3.org/1999/xlink" x="0px" y="0px"
	 viewBox="0 0 60 60.3" style="enable-background:new 0 0 60 60.3;" xml:space="preserve">
<style type="text/css">
	.st0{opacity:0.88;fill:#BC1A18;}
	.st1{opacity:0.88;}
	.st2{fill:#BC1A18;}
	.st3{fill:#BA3938;}
	.st4{fill:#FFFFFF;}
	.st5{fill-rule:evenodd;clip-rule:evenodd;fill:#FFFFFF;}
	.st6{fill:#931914;}
</style>
<g>
	<circle class="st3" cx="29.9" cy="29.8" r="28.9"/>
	<g>
		<path class="st4" d="M20.3,32h15c0.4,0,0.6-0.3,0.6-0.6c0-0.4-0.3-0.6-0.6-0.6h-15c-0.4,0-0.6,0.3-0.6,0.6
			C19.6,31.7,19.9,32,20.3,32z"/>
		<path class="st4" d="M20.4,36.4h14.8c0.4,0,0.7-0.3,0.7-0.6c0-0.4-0.3-0.6-0.7-0.6H20.4c-0.4,0-0.7,0.3-0.7,0.6
			C19.6,36.1,19.9,36.4,20.4,36.4z"/>
		<path class="st4" d="M20.3,40.5h15c0.4,0,0.6-0.3,0.6-0.6s-0.3-0.6-0.6-0.6h-15c-0.4,0-0.6,0.3-0.6,0.6S19.9,40.5,20.3,40.5z"/>
		<path class="st4" d="M20.4,44.8h14.8c0.4,0,0.7-0.3,0.7-0.6c0-0.4-0.3-0.6-0.7-0.6H20.4c-0.4,0-0.7,0.3-0.7,0.6
			C19.6,44.5,19.9,44.8,20.4,44.8z"/>
		<path class="st4" d="M17.8,15c-0.6,0.1-1.2,0.3-1.6,0.8c-0.5,0.5-0.8,1.2-0.8,1.9v0h-4.6c-0.3,0-0.5,0.2-0.5,0.5v10.5
			c0,0.3,0.2,0.5,0.5,0.5h4.6l0,16.5c0,0.7,0.3,1.3,0.8,1.8c0.5,0.4,1,0.7,1.7,0.8l20.4,0c0.7,0,1.4-0.3,1.9-0.8
			c0.5-0.5,0.8-1.2,0.8-1.9l0-10.4h6.7v2c0,0.3,0.2,0.5,0.5,0.5c0.1,0,0.2,0,0.3-0.1l6.8-4.6c0.1-0.1,0.2-0.2,0.2-0.3
			c0-0.1,0-0.3-0.1-0.4c0-0.1-0.1-0.1-0.1-0.1l-6.8-4.6c-0.1-0.1-0.2-0.1-0.4-0.1c-0.1,0-0.2,0.1-0.3,0.2c-0.1,0.1-0.1,0.2-0.1,0.3
			v2h-6.7l0-6c0-0.2-0.1-0.4-0.2-0.5l-8.3-8.3C32.2,15,32,15,31.8,15c0,0,0,0,0,0l-13.6,0L17.8,15z M32.5,22v-4.9l6.2,6.2h-4.8
			c-0.4,0-0.7-0.1-0.9-0.4l0,0C32.6,22.7,32.5,22.4,32.5,22z M11.4,18.6h9.5v9.5h-9.5V18.6z M18.3,16.2h12.9V22
			c0,0.7,0.3,1.4,0.8,1.9c0.5,0.5,1.2,0.8,1.9,0.8h5.8l0,21c0,0.4-0.1,0.7-0.4,0.9c-0.3,0.3-0.6,0.4-0.9,0.4H18.1l-0.1,0
			c-0.3,0-0.6-0.2-0.9-0.4c-0.3-0.3-0.4-0.6-0.4-0.9V29.1h4.7c0.3,0,0.5-0.2,0.5-0.5V18.1c0-0.3-0.2-0.5-0.5-0.5h-4.7v0
			c0-0.4,0.1-0.7,0.4-0.9c0.2-0.2,0.5-0.4,0.8-0.4L18.3,16.2z M40.9,31h7.2c0.3,0,0.5-0.2,0.5-0.5v-1.6l5.5,3.7l-5.5,3.7v-1.6
			c0-0.3-0.2-0.5-0.5-0.5h-7.2L40.9,31z"/>
		<polygon class="st4" points="18.4,21 17.1,21 16,22.6 14.9,21 13.6,21 15.3,23.4 13.4,26.1 14.7,26.1 16,24.2 17.3,26.1 
			18.6,26.1 16.7,23.4 		"/>
	</g>
</g>
</svg>
