<?xml version="1.0" encoding="utf-8"?>
<!-- Generator: Adobe Illustrator 26.2.1, SVG Export Plug-In . SVG Version: 6.00 Build 0)  -->
<svg version="1.0" id="Capa_1" xmlns="http://www.w3.org/2000/svg" xmlns:xlink="http://www.w3.org/1999/xlink" x="0px" y="0px"
	 viewBox="0 0 60 60.3" style="enable-background:new 0 0 60 60.3;" xml:space="preserve">
<style type="text/css">
	.st0{opacity:0.88;fill:#BC1A18;}
	.st1{opacity:0.88;}
	.st2{fill:#BC1A18;}
	.st3{fill:#BA3938;}
	.st4{fill:#FFFFFF;}
	.st5{fill-rule:evenodd;clip-rule:evenodd;fill:#FFFFFF;}
	.st6{fill:#931914;}
</style>
<g>
	<circle class="st3" cx="29.8" cy="30.1" r="28.9"/>
	<g>
		<path class="st4" d="M38.1,44.8h1.8c0.2,0,0.4-0.2,0.4-0.4v-1.8c0-0.2-0.2-0.4-0.4-0.4h-1.8c-0.2,0-0.4,0.2-0.4,0.4v1.8
			C37.7,44.6,37.9,44.8,38.1,44.8z"/>
		<path class="st4" d="M43.3,38.5L43.3,38.5L43.3,38.5C42.9,38.1,42.5,38,42,38H16c-0.5,0-1,0.2-1.3,0.5c-0.3,0.3-0.5,0.8-0.5,1.3
			v6.5c0,0.5,0.2,0.9,0.5,1.3l0,0c0.3,0.3,0.8,0.5,1.3,0.5h26c0.5,0,1-0.2,1.3-0.5l0,0v0c0.3-0.3,0.5-0.8,0.5-1.3v-6.5
			C43.8,39.3,43.6,38.8,43.3,38.5z M15.3,39.8c0-0.2,0.1-0.3,0.2-0.4c0.1-0.1,0.3-0.2,0.4-0.2h26c0.2,0,0.3,0.1,0.4,0.2
			c0.1,0.1,0.2,0.3,0.2,0.4v6.5c0,0.2-0.1,0.3-0.2,0.4c-0.1,0.1-0.3,0.2-0.4,0.2H16c-0.2,0-0.3-0.1-0.5-0.2
			c-0.1-0.1-0.2-0.3-0.2-0.4V39.8z"/>
		<path class="st4" d="M28.1,35.4c0.1,0.2,0.3,0.3,0.5,0.3c0.1,0,0.2,0,0.3-0.1c0.1,0,0.1-0.1,0.2-0.2l6.7-9.9
			c0.1-0.1,0.1-0.3,0.1-0.4c0-0.2-0.1-0.3-0.3-0.4v0c0,0-0.1,0-0.1,0v-0.1h-3.3V9.3c0-0.6-0.2-1.2-0.7-1.6c-0.4-0.4-1-0.7-1.6-0.7
			h-2.6c-0.6,0-1.2,0.2-1.6,0.6l0,0c-0.4,0.4-0.7,1-0.7,1.6v15.3H22c-0.3,0-0.6,0.3-0.6,0.6c0,0.1,0,0.3,0.1,0.4L28.1,35.4z
			 M31.7,25.8h2.5L28.6,34l-5.5-8.2h2.5c0.3,0,0.6-0.3,0.6-0.6V9.3c0-0.3,0.1-0.6,0.3-0.8c0.2-0.2,0.5-0.3,0.8-0.3h2.6
			c0.3,0,0.6,0.1,0.8,0.3C31,8.7,31.1,9,31.1,9.3v15.9C31.1,25.5,31.3,25.8,31.7,25.8z"/>
	</g>
</g>
</svg>
