<?xml version="1.0" encoding="utf-8"?>
<!-- Generator: Adobe Illustrator 26.2.1, SVG Export Plug-In . SVG Version: 6.00 Build 0)  -->
<svg version="1.0" id="Capa_1" xmlns="http://www.w3.org/2000/svg" xmlns:xlink="http://www.w3.org/1999/xlink" x="0px" y="0px"
	 viewBox="0 0 60 60.3" style="enable-background:new 0 0 60 60.3;" xml:space="preserve">
<style type="text/css">
	.st0{opacity:0.88;fill:#BC1A18;}
	.st1{opacity:0.88;}
	.st2{fill:#BC1A18;}
	.st3{fill:#BA3938;}
	.st4{fill:#FFFFFF;}
	.st5{fill-rule:evenodd;clip-rule:evenodd;fill:#FFFFFF;}
	.st6{opacity:0.9;fill:#931914;}
	.st7{font-family:'HelveticaNeue';}
	.st8{font-size:8.8541px;}
	.st9{fill:#931914;}
</style>
<g>
	<circle class="st3" cx="30.1" cy="30.1" r="28.9"/>
	<g>
		<path class="st4" d="M44.2,20.6l-9-9c-0.1-0.1-0.3-0.2-0.4-0.2l0,0l-14.8,0v0l-0.2,0v0c-0.7,0-1.3,0.3-1.8,0.8
			c-0.5,0.5-0.8,1.2-0.8,1.9v30.4l0,0.1h0c0,0.7,0.3,1.3,0.8,1.8c0.5,0.5,1.1,0.8,1.8,0.8l22,0c0.7,0,1.4-0.3,1.9-0.8
			c0.5-0.5,0.8-1.2,0.8-1.9l0-23.4l0,0C44.4,20.8,44.3,20.7,44.2,20.6z M36.9,20.4c-0.4,0-0.8-0.2-1.1-0.5l0,0
			c-0.3-0.3-0.4-0.7-0.4-1.1v-5.6l7.2,7.2H36.9z M34.9,20.7L34.9,20.7L34.9,20.7c0.6,0.5,1.2,0.8,1.9,0.8h6.4l0,22.9
			c0,0.4-0.2,0.8-0.5,1.1c-0.3,0.3-0.7,0.5-1.1,0.5H19.8l-0.1,0c-0.4,0-0.8-0.2-1.1-0.5c-0.3-0.3-0.5-0.7-0.5-1.1V14
			c0-0.4,0.2-0.8,0.5-1.1c0.3-0.3,0.7-0.4,1-0.5l14.5,0v6.4C34.2,19.6,34.4,20.2,34.9,20.7z"/>
		<path class="st5" d="M37,39.7H11.8c-0.6,0-1-0.5-1-1v-8.4c0-0.6,0.5-1,1-1H37c0.6,0,1,0.5,1,1v8.4C38,39.3,37.5,39.7,37,39.7z"/>
		<text transform="matrix(1 0 0 1 15.9082 37.6751)" class="st6 st7 st8">PDF</text>
	</g>
</g>
</svg>
