<?xml version="1.0" encoding="utf-8"?>
<!-- Generator: Adobe Illustrator 26.2.1, SVG Export Plug-In . SVG Version: 6.00 Build 0)  -->
<svg version="1.0" id="Capa_1" xmlns="http://www.w3.org/2000/svg" xmlns:xlink="http://www.w3.org/1999/xlink" x="0px" y="0px"
	 viewBox="0 0 60 60.3" style="enable-background:new 0 0 60 60.3;" xml:space="preserve">
<style type="text/css">
	.st0{opacity:0.88;fill:#BC1A18;}
	.st1{opacity:0.88;}
	.st2{fill:#BC1A18;}
	.st3{fill:#BA3938;}
	.st4{fill:#FFFFFF;}
	.st5{fill-rule:evenodd;clip-rule:evenodd;fill:#FFFFFF;}
	.st6{fill:#931914;}
</style>
<g>
	<circle class="st3" cx="29.9" cy="30.4" r="28.9"/>
	<g>
		<path class="st4" d="M37.8,42.2h-16c-0.4,0-0.7,0.3-0.7,0.6c0,0.3,0.3,0.6,0.7,0.6h16c0.4,0,0.7-0.3,0.7-0.6
			C38.5,42.5,38.2,42.2,37.8,42.2z"/>
		<path class="st4" d="M37.8,38.8c0.3,0,0.6-0.3,0.6-0.6s-0.3-0.6-0.6-0.6H21.7c-0.3,0-0.6,0.3-0.6,0.6s0.3,0.6,0.6,0.6H37.8z"/>
		<path class="st4" d="M43.6,20.7l-9-9c-0.1-0.1-0.3-0.2-0.5-0.2l-14.6,0v0l-0.4,0v0c-0.7,0-1.3,0.3-1.7,0.8
			c-0.5,0.5-0.8,1.2-0.8,1.9l0,30.2c0,0.7,0.3,1.4,0.8,1.9c0.5,0.5,1.1,0.8,1.7,0.8l21.9,0c0.7,0,1.4-0.3,1.9-0.8
			c0.5-0.5,0.8-1.2,0.8-1.9l0-23.3C43.8,20.9,43.8,20.8,43.6,20.7z M36.3,20.5c-0.4,0-0.8-0.2-1.1-0.4l0,0c-0.3-0.3-0.4-0.6-0.4-1
			v-5.4l6.9,6.9H36.3z M34.3,20.9L34.3,20.9L34.3,20.9c0.6,0.6,1.3,0.8,2,0.8h6.3l0,22.6c0,0.4-0.2,0.8-0.4,1.1
			c-0.3,0.3-0.7,0.4-1.1,0.4H19.4l-0.1,0c-0.4,0-0.7-0.2-1-0.4c-0.3-0.3-0.4-0.7-0.4-1.1V14.2c0-0.4,0.2-0.8,0.4-1.1
			c0.3-0.3,0.6-0.4,1-0.4l14.3,0V19C33.6,19.7,33.8,20.4,34.3,20.9z"/>
		<path class="st4" d="M37.8,33.1h-16c-0.4,0-0.7,0.3-0.7,0.6c0,0.3,0.3,0.6,0.7,0.6h16c0.4,0,0.7-0.3,0.7-0.6
			C38.5,33.4,38.2,33.1,37.8,33.1z"/>
		<path class="st4" d="M21.1,24.6c0,0.3,0.3,0.6,0.6,0.6h14.9c0.3,0,0.6-0.3,0.6-0.6S36.9,24,36.6,24H21.7
			C21.4,24,21.1,24.3,21.1,24.6z"/>
		<path class="st4" d="M21.1,29c0,0.3,0.3,0.6,0.6,0.6h16.1c0.3,0,0.6-0.3,0.6-0.6s-0.3-0.6-0.6-0.6H21.7
			C21.4,28.4,21.1,28.7,21.1,29z"/>
	</g>
</g>
</svg>
