<?xml version="1.0" encoding="utf-8"?>
<!-- Generator: Adobe Illustrator 26.2.1, SVG Export Plug-In . SVG Version: 6.00 Build 0)  -->
<svg version="1.0" id="Capa_1" xmlns="http://www.w3.org/2000/svg" xmlns:xlink="http://www.w3.org/1999/xlink" x="0px" y="0px"
	 viewBox="0 0 60 60.3" style="enable-background:new 0 0 60 60.3;" xml:space="preserve">
<style type="text/css">
	.st0{opacity:0.88;fill:#BC1A18;}
	.st1{opacity:0.88;}
	.st2{fill:#BC1A18;}
	.st3{fill:#BA3938;}
	.st4{fill:#FFFFFF;}
	.st5{fill-rule:evenodd;clip-rule:evenodd;fill:#FFFFFF;}
	.st6{fill:#931914;}
</style>
<g>
	<circle class="st3" cx="29.7" cy="30.2" r="28.9"/>
	<path class="st4" d="M42.5,13.3l-5.1-3.2c-1.3-0.8-3.1-0.4-4,0.9L17.4,36.6c-0.1,0.2-0.2,0.4-0.2,0.6l-0.3,5.5l0,0.7l-0.2,3.8
		c0,0.8,0.8,1.4,1.5,1l3.3-1.9l0.6-0.3l4.8-2.7c0.2-0.1,0.3-0.2,0.4-0.4l16.1-25.7C44.3,15.9,43.9,14.1,42.5,13.3z M32.5,14.8
		l1.8,1.1L20.8,37.5L19,36.4L32.5,14.8z M35.3,16.6l2.2,1.4L24.1,39.5l-2.2-1.4L35.3,16.6z M20.4,45.6L17.8,47l0.1-2.9l0-0.4
		l0.1,0.1l2.4,1.5l0.1,0.1L20.4,45.6z M21.9,44.7l-0.1-0.1l-3.6-2.2l-0.1-0.1l0.2-4.7l7.8,4.9L21.9,44.7z M26.9,41.3l-1.8-1.1
		l13.5-21.5l1.8,1.1L26.9,41.3z M42.4,16.6L41,18.7l-7.9-4.9l1.3-2.1c0.5-0.8,1.5-1,2.2-0.5l5.1,3.2C42.6,14.8,42.9,15.8,42.4,16.6z
		"/>
</g>
</svg>
