<?xml version="1.0" encoding="utf-8"?>
<!-- Generator: Adobe Illustrator 26.2.1, SVG Export Plug-In . SVG Version: 6.00 Build 0)  -->
<svg version="1.0" id="Capa_1" xmlns="http://www.w3.org/2000/svg" xmlns:xlink="http://www.w3.org/1999/xlink" x="0px" y="0px"
	 viewBox="0 0 60 60.3" style="enable-background:new 0 0 60 60.3;" xml:space="preserve">
<style type="text/css">
	.st0{opacity:0.88;fill:#BC1A18;}
	.st1{opacity:0.88;}
	.st2{fill:#BC1A18;}
	.st3{fill:#BA3938;}
	.st4{fill:#FFFFFF;}
	.st5{fill-rule:evenodd;clip-rule:evenodd;fill:#FFFFFF;}
	.st6{fill:#931914;}
</style>
<g>
	<circle class="st3" cx="29.8" cy="30.5" r="28.9"/>
	<g>
		<path class="st4" d="M51.2,19.8c-0.5-0.5-1.1-0.7-1.7-0.7H20.6c-0.6,0-1.2,0.3-1.7,0.7c-0.5,0.5-0.7,1.1-0.7,1.7v7.4H5.7
			c-0.3,0-0.5,0.2-0.5,0.5s0.2,0.5,0.5,0.5h12.5v3.9h-6.2c-0.3,0-0.5,0.2-0.5,0.5s0.2,0.5,0.5,0.5h6.2v4.1c0,0.6,0.2,1.2,0.7,1.7
			c0.5,0.5,1.1,0.7,1.7,0.7h28.9c0.6,0,1.2-0.2,1.7-0.7l0.1-0.1v0c0.4-0.4,0.6-1,0.6-1.6V21.5C51.9,20.9,51.6,20.3,51.2,19.8z
			 M19.4,34.8h0.4c0.3,0,0.5-0.2,0.5-0.5s-0.2-0.5-0.5-0.5h-0.4v-3.9h3.4c0.3,0,0.5-0.2,0.5-0.5s-0.2-0.5-0.5-0.5h-3.4v-4l8.5,6.4
			l-8.5,6.4V34.8z M50.7,24.8v12.8l-8.5-6.4L50.7,24.8z M41,31L41,31L41,31L41,31z M50.7,23.3L35.7,34.6c-0.4,0.3-1,0.3-1.4,0
			L19.4,23.3v-1.8c0-0.3,0.1-0.6,0.3-0.8l0,0c0.2-0.2,0.5-0.3,0.8-0.3h28.9c0.3,0,0.6,0.1,0.8,0.3c0.2,0.2,0.3,0.5,0.3,0.8V23.3z
			 M28.8,32l4.7,3.6c0.8,0.6,2.1,0.6,2.9,0l4.7-3.6l9.4,7.1c0,0.2-0.1,0.4-0.3,0.5l0,0c-0.2,0.2-0.5,0.3-0.8,0.3H20.6
			c-0.3,0-0.6-0.1-0.8-0.3c-0.2-0.2-0.3-0.4-0.3-0.6L28.8,32z"/>
		<path class="st4" d="M7.7,24.6h7.9c0.3,0,0.5-0.2,0.5-0.5s-0.2-0.5-0.5-0.5H7.7c-0.3,0-0.5,0.2-0.5,0.5S7.4,24.6,7.7,24.6z"/>
		<path class="st4" d="M13.9,38.4H6c-0.3,0-0.5,0.2-0.5,0.5s0.2,0.5,0.5,0.5h7.9c0.3,0,0.5-0.2,0.5-0.5S14.2,38.4,13.9,38.4z"/>
	</g>
</g>
</svg>
