<?xml version="1.0" encoding="utf-8"?>
<!-- Generator: Adobe Illustrator 26.2.1, SVG Export Plug-In . SVG Version: 6.00 Build 0)  -->
<svg version="1.0" id="Capa_1" xmlns="http://www.w3.org/2000/svg" xmlns:xlink="http://www.w3.org/1999/xlink" x="0px" y="0px"
	 viewBox="0 0 60 60.3" style="enable-background:new 0 0 60 60.3;" xml:space="preserve">
<style type="text/css">
	.st0{opacity:0.88;fill:#BC1A18;}
	.st1{opacity:0.88;}
	.st2{fill:#BC1A18;}
	.st3{fill:#BA3938;}
	.st4{fill:#FFFFFF;}
	.st5{fill-rule:evenodd;clip-rule:evenodd;fill:#FFFFFF;}
	.st6{fill:#931914;}
</style>
<g>
	<circle class="st3" cx="29.8" cy="29.8" r="28.9"/>
	<g>
		<g>
			<path class="st4" d="M41.3,12H22.9c-0.2,0-0.4,0.1-0.5,0.2l-8,8c-0.1,0.1-0.2,0.3-0.2,0.5v25.5c0,0.4,0.3,0.7,0.7,0.7h26.4
				c0.4,0,0.7-0.3,0.7-0.7V12.7C42,12.3,41.7,12,41.3,12z M22.5,14.1v6.1h-6.1L22.5,14.1z M40.6,45.4h-25V21.6
				c0.1,0,0.2,0.1,0.3,0.1h7.3c0.4,0,0.7-0.3,0.7-0.7v-7.3c0,0,0-0.1,0-0.1h16.7V45.4z"/>
		</g>
	</g>
</g>
</svg>
