<?xml version="1.0" encoding="utf-8"?>
<!-- Generator: Adobe Illustrator 26.2.1, SVG Export Plug-In . SVG Version: 6.00 Build 0)  -->
<svg version="1.0" id="Capa_1" xmlns="http://www.w3.org/2000/svg" xmlns:xlink="http://www.w3.org/1999/xlink" x="0px" y="0px"
	 viewBox="0 0 60 60.3" style="enable-background:new 0 0 60 60.3;" xml:space="preserve">
<style type="text/css">
	.st0{opacity:0.88;fill:#BC1A18;}
	.st1{opacity:0.88;}
	.st2{fill:#BC1A18;}
	.st3{fill:#BA3938;}
	.st4{fill:#FFFFFF;}
	.st5{fill-rule:evenodd;clip-rule:evenodd;fill:#FFFFFF;}
	.st6{fill:#931914;}
</style>
<g>
	<circle class="st3" cx="30.1" cy="29.6" r="28.9"/>
	<g>
		<path class="st4" d="M33.1,32.8c0-1.4-0.3-2.9-0.8-4.2c-0.6-1.3-1.4-2.5-2.4-3.6c-1-1-2.2-1.8-3.6-2.4c-2.7-1.1-5.7-1.1-8.4,0
			c-1.3,0.6-2.5,1.4-3.6,2.4c-1,1-1.8,2.2-2.4,3.6c-0.5,1.3-0.8,2.7-0.8,4.2c0,1.4,0.3,2.9,0.8,4.2c0.6,1.3,1.3,2.5,2.4,3.6
			c1,1,2.2,1.8,3.6,2.4c1.3,0.6,2.7,0.8,4.2,0.8c1.4,0,2.9-0.3,4.2-0.8c1.3-0.6,2.5-1.3,3.6-2.4c1-1,1.8-2.2,2.4-3.6
			C32.8,35.7,33.1,34.3,33.1,32.8z M31.4,36.6c-0.5,1.2-1.2,2.3-2.2,3.2c-0.9,0.9-2,1.7-3.2,2.2c-2.4,1-5.2,1-7.6,0
			c-1.2-0.5-2.3-1.2-3.2-2.2c-0.9-0.9-1.7-2-2.2-3.2c-0.5-1.2-0.8-2.5-0.8-3.8c0-1.3,0.3-2.6,0.8-3.8c0.5-1.2,1.2-2.3,2.2-3.2
			c0.9-0.9,2-1.7,3.2-2.2c1.2-0.5,2.5-0.8,3.8-0.8c1.3,0,2.6,0.3,3.8,0.8c1.2,0.5,2.3,1.2,3.2,2.2c0.9,0.9,1.7,2,2.2,3.2
			c0.5,1.2,0.8,2.5,0.8,3.8C32.1,34.2,31.9,35.4,31.4,36.6z"/>
		<path class="st4" d="M26,33.2c-0.5-0.5-1.1-0.7-1.8-0.7h-1.6v-4.6h2.8c0.3,0,0.6-0.3,0.6-0.6c0-0.3-0.3-0.6-0.6-0.6h-2.8v-0.9
			c0-0.3-0.3-0.6-0.6-0.6s-0.6,0.3-0.6,0.6v0.9h-1.6c-0.7,0-1.3,0.3-1.8,0.7c-0.5,0.5-0.7,1.1-0.7,1.8v1.9c0,1.4,1.1,2.5,2.5,2.5
			h1.6v4.6h-3.5c-0.3,0-0.6,0.3-0.6,0.6c0,0.3,0.3,0.6,0.6,0.6h3.5v0.9c0,0.3,0.3,0.6,0.6,0.6s0.6-0.3,0.6-0.6v-0.9h1.6
			c1.4,0,2.5-1.1,2.5-2.5v-1.9C26.7,34.3,26.5,33.7,26,33.2L26,33.2z M25.6,34.9v1.9c0,0.7-0.6,1.3-1.3,1.3h-1.6v-4.6h1.6
			c0.4,0,0.7,0.1,0.9,0.4C25.4,34.2,25.6,34.6,25.6,34.9z M21.4,27.8v4.6h-1.6c-0.7,0-1.3-0.6-1.3-1.3v-1.9c0-0.4,0.1-0.7,0.4-0.9
			c0.3-0.3,0.6-0.4,0.9-0.4H21.4z"/>
		<path class="st4" d="M46.4,12.7h-25c-0.1,0-0.3,0.1-0.4,0.1S21,13,21,13.2l0,5.8c-7,0.8-12.4,6.7-12.4,13.9c0,7.7,6.3,14,14,14
			c2.3,0,4.5-0.6,6.5-1.6c0.1,0.1,0.2,0.2,0.4,0.2h17.1c0.3,0,0.5-0.2,0.5-0.5V13.2C46.9,12.9,46.7,12.7,46.4,12.7z M9.6,32.8
			c0-7.1,5.8-13,13-13s13,5.8,13,13s-5.8,13-13,13S9.6,39.9,9.6,32.8z M45.9,44.3H30.4c3.7-2.5,6.1-6.7,6.1-11.5c0-7.7-6.3-14-14-14
			c-0.2,0-0.3,0-0.5,0l0-5.2h24V44.3z"/>
	</g>
</g>
</svg>
