<?xml version="1.0" encoding="utf-8"?>
<!-- Generator: Adobe Illustrator 26.2.1, SVG Export Plug-In . SVG Version: 6.00 Build 0)  -->
<svg version="1.0" id="Capa_1" xmlns="http://www.w3.org/2000/svg" xmlns:xlink="http://www.w3.org/1999/xlink" x="0px" y="0px"
	 viewBox="0 0 60 60.3" style="enable-background:new 0 0 60 60.3;" xml:space="preserve">
<style type="text/css">
	.st0{opacity:0.88;fill:#BC1A18;}
	.st1{opacity:0.88;}
	.st2{fill:#BC1A18;}
	.st3{fill:#BA3938;}
	.st4{fill:#FFFFFF;}
	.st5{fill-rule:evenodd;clip-rule:evenodd;fill:#FFFFFF;}
	.st6{fill:#931914;}
</style>
<g>
	<circle class="st3" cx="29.7" cy="30.3" r="28.9"/>
	<g>
		<path class="st4" d="M18.2,41.1H42c0.3,0,0.6-0.3,0.6-0.6c0-0.3-0.3-0.6-0.6-0.6H18.2c-0.3,0-0.6,0.3-0.6,0.6
			C17.7,40.8,17.9,41.1,18.2,41.1z"/>
		<path class="st4" d="M48.1,28.6c-0.5-0.5-1.1-0.7-1.8-0.7h-3.7c-0.3,0-0.6,0.3-0.6,0.6v3.2h-1.1l0-11.7c0-0.2-0.1-0.3-0.2-0.4
			l-7.2-7.2c-0.1-0.1-0.3-0.2-0.5-0.2l-11.6,0c-0.7,0-1.3,0.3-1.8,0.7c-0.5,0.5-0.7,1.1-0.7,1.8v17h-0.7v-3.2c0-0.3-0.3-0.6-0.6-0.6
			h-3.8c-0.7,0-1.3,0.3-1.8,0.7L12,28.6v0c-0.4,0.5-0.7,1.1-0.7,1.7v11.2c0,0.7,0.3,1.3,0.7,1.8c0.5,0.5,1.1,0.7,1.8,0.7h32.4
			c0.7,0,1.3-0.3,1.8-0.7l0,0c0.5-0.5,0.7-1.1,0.7-1.8V30.4C48.8,29.7,48.6,29.1,48.1,28.6z M35,19.4c-0.4,0-0.7-0.1-1-0.4
			c-0.3-0.3-0.4-0.6-0.4-1v-3.9l5.3,5.3H35z M33.2,19.8c0.5,0.5,1.1,0.7,1.8,0.7h4.7l0,11.1H20.1v-17c0-0.4,0.1-0.7,0.4-1
			c0.3-0.3,0.6-0.4,1-0.4l0.2,0l10.9,0V18C32.5,18.7,32.8,19.3,33.2,19.8z M17.6,32.7h24.9c0.3,0,0.6-0.3,0.6-0.6V29h3.2
			c0.4,0,0.7,0.1,1,0.4c0.3,0.3,0.4,0.6,0.4,1v11.2c0,0.4-0.1,0.7-0.4,0.9l0,0c-0.3,0.3-0.6,0.4-1,0.4H13.9c-0.4,0-0.7-0.1-1-0.4
			c-0.3-0.3-0.4-0.6-0.4-1V30.4c0-0.4,0.1-0.7,0.4-1l0,0c0.3-0.3,0.6-0.4,1-0.4h3.2v3.2C17.1,32.5,17.3,32.7,17.6,32.7z"/>
		<path class="st4" d="M40,37.6l2,0c0.3,0,0.6-0.3,0.6-0.6l0-1.9c0-0.3-0.3-0.6-0.6-0.6h-2c-0.3,0-0.6,0.3-0.6,0.6l0,1.9
			C39.4,37.3,39.7,37.6,40,37.6z M40.6,36.5v-0.7l0.8,0v0.7H40.6z"/>
	</g>
</g>
</svg>
