<?xml version="1.0" encoding="utf-8"?>
<!-- Generator: Adobe Illustrator 26.2.1, SVG Export Plug-In . SVG Version: 6.00 Build 0)  -->
<svg version="1.0" id="Capa_1" xmlns="http://www.w3.org/2000/svg" xmlns:xlink="http://www.w3.org/1999/xlink" x="0px" y="0px"
	 viewBox="0 0 60 60.3" style="enable-background:new 0 0 60 60.3;" xml:space="preserve">
<style type="text/css">
	.st0{opacity:0.88;fill:#BC1A18;}
	.st1{opacity:0.88;}
	.st2{fill:#BC1A18;}
	.st3{fill:#BA3938;}
	.st4{fill:#FFFFFF;}
	.st5{fill-rule:evenodd;clip-rule:evenodd;fill:#FFFFFF;}
	.st6{fill:#931914;}
</style>
<g>
	<circle class="st3" cx="29.7" cy="29.8" r="28.9"/>
	<g>
		<path class="st4" d="M43.3,35.8H39c-0.3,0-0.5,0.2-0.5,0.5s0.2,0.5,0.5,0.5h4.3c0.3,0,0.5-0.2,0.5-0.5S43.6,35.8,43.3,35.8z"/>
		<path class="st4" d="M41.2,31.7c0.4,0,0.8-0.2,1.1-0.4c0.3-0.3,0.4-0.7,0.4-1.1c0-0.4-0.2-0.8-0.4-1.1c-0.3-0.3-0.7-0.4-1.1-0.4
			c-0.4,0-0.8,0.2-1.1,0.4c-0.3,0.3-0.4,0.7-0.4,1.1c0,0.4,0.2,0.8,0.4,1l0,0C40.4,31.5,40.8,31.7,41.2,31.7z M40.7,30.2
			c0-0.1,0.1-0.3,0.1-0.4c0.1-0.1,0.2-0.1,0.3-0.1c0.1,0,0.3,0.1,0.3,0.1l0,0c0.1,0.1,0.1,0.2,0.1,0.3c0,0.1,0,0.2-0.1,0.3l0,0
			c-0.2,0.2-0.5,0.2-0.7,0C40.7,30.4,40.7,30.3,40.7,30.2z"/>
		<path class="st4" d="M43.3,23.6H39c-0.3,0-0.5,0.2-0.5,0.5s0.2,0.5,0.5,0.5h4.3c0.3,0,0.5-0.2,0.5-0.5S43.6,23.6,43.3,23.6z"/>
		<path class="st4" d="M15,24.6h4.3c0.3,0,0.5-0.2,0.5-0.5s-0.2-0.5-0.5-0.5H15c-0.3,0-0.5,0.2-0.5,0.5S14.8,24.6,15,24.6z"/>
		<path class="st4" d="M47.2,19.2c-0.3-0.3-0.6-0.4-1-0.4H12.1c-0.4,0-0.7,0.1-1,0.4l0,0v0c-0.2,0.3-0.4,0.6-0.4,1v19.8
			c0,0.4,0.1,0.7,0.4,1l0,0c0.3,0.3,0.6,0.4,1,0.4h34.1c0.4,0,0.7-0.1,1-0.4l0.1,0c0.3-0.3,0.4-0.6,0.4-1V20.3
			C47.6,19.9,47.5,19.5,47.2,19.2z M32.9,35v-9.7c0.5,0.5,0.9,1,1.3,1.6c0.5,1,0.8,2.1,0.8,3.2s-0.3,2.2-0.8,3.2
			C33.8,34,33.4,34.5,32.9,35z M32.9,36.3c0.9-0.6,1.6-1.5,2.2-2.5c0.6-1.1,0.9-2.4,0.9-3.7s-0.3-2.6-0.9-3.7
			c-0.5-1-1.3-1.8-2.2-2.5v-1.9h11.7v16.1H32.9V36.3z M45.6,38.7V21.6c0-0.3-0.2-0.5-0.5-0.5H32.7v-1.3h13.5c0.1,0,0.2,0,0.3,0.1
			c0.1,0.1,0.1,0.2,0.1,0.3v19.8c0,0.1,0,0.2-0.1,0.3c-0.1,0.1-0.2,0.1-0.3,0.1H32.7v-1.3h12.3C45.3,39.2,45.6,39,45.6,38.7z
			 M31.7,19.9v20.6h-2V19.9H31.7z M28.7,19.9v20.6h-2V19.9H28.7z M25.5,25.3V35c-0.5-0.5-0.9-1-1.3-1.6c-0.5-1-0.8-2.1-0.8-3.2
			s0.3-2.2,0.8-3.2C24.6,26.4,25,25.8,25.5,25.3z M25.5,24c-0.9,0.6-1.6,1.5-2.2,2.5c-0.6,1.1-0.9,2.4-0.9,3.7
			c0,1.3,0.3,2.6,0.9,3.7c0.5,1,1.3,1.8,2.2,2.5v1.9H13.8V22.1h11.7V24z M12.8,21.6v17.1c0,0.3,0.2,0.5,0.5,0.5h12.3v1.3H12.1
			c-0.1,0-0.2,0-0.3-0.1c-0.1-0.1-0.1-0.2-0.1-0.3V20.3c0-0.1,0-0.2,0.1-0.2l0,0c0.1-0.1,0.2-0.1,0.3-0.1h13.5v1.3H13.3
			C13,21.1,12.8,21.4,12.8,21.6z"/>
		<path class="st4" d="M15,36.8h4.3c0.3,0,0.5-0.2,0.5-0.5s-0.2-0.5-0.5-0.5H15c-0.3,0-0.5,0.2-0.5,0.5S14.8,36.8,15,36.8z"/>
		<path class="st4" d="M18.1,29c-0.6-0.4-1.4-0.4-2,0.1l0,0c-0.3,0.3-0.4,0.7-0.4,1.1c0,0.4,0.1,0.7,0.4,1c0,0,0,0,0,0l0.3,0.3
			l0-0.1c0.2,0.2,0.5,0.2,0.8,0.2c0.4,0,0.8-0.2,1.1-0.4c0.3-0.3,0.4-0.7,0.4-1.1c0-0.4-0.2-0.8-0.4-1.1L18.1,29L18.1,29z
			 M17.7,30.2c0,0.1-0.1,0.3-0.1,0.4c-0.2,0.2-0.5,0.2-0.7,0c-0.1-0.1-0.1-0.2-0.1-0.4c0-0.1,0.1-0.3,0.2-0.4
			c0.1-0.1,0.2-0.1,0.3-0.1c0.1,0,0.2,0,0.3,0.1l0,0C17.6,29.9,17.7,30,17.7,30.2z"/>
	</g>
</g>
</svg>
