<?xml version="1.0" encoding="utf-8"?>
<!-- Generator: Adobe Illustrator 26.2.1, SVG Export Plug-In . SVG Version: 6.00 Build 0)  -->
<svg version="1.0" id="Capa_1" xmlns="http://www.w3.org/2000/svg" xmlns:xlink="http://www.w3.org/1999/xlink" x="0px" y="0px"
	 viewBox="0 0 49 47.3" style="enable-background:new 0 0 49 47.3;" xml:space="preserve">
<style type="text/css">
	.st0{opacity:0.88;fill:#BC1A18;}
	.st1{opacity:0.88;}
	.st2{fill:#BC1A18;}
	.st3{fill:#BA3938;}
	.st4{fill:#FFFFFF;}
	.st5{fill-rule:evenodd;clip-rule:evenodd;fill:#FFFFFF;}
	.st6{fill:#931914;}
</style>
<g>
	<circle class="st4" cx="24.6" cy="23.1" r="22"/>
	<path class="st6" d="M40.8,22.8l-5-3.3c-0.1-0.1-0.2-0.1-0.2-0.1c-0.2,0-0.4,0.2-0.4,0.4v1.4h-7.6c-0.3,0-0.7,0.1-0.9,0.4
		c-0.2,0.2-0.4,0.6-0.4,0.9v1.3c0,0.3,0.1,0.7,0.4,0.9c0.2,0.2,0.6,0.4,0.9,0.4h7.6l0,1.4c0,0.1,0,0.2,0.1,0.2
		c0.1,0.1,0.2,0.2,0.3,0.2c0.1,0,0.2,0,0.2-0.1l5-3.4c0,0,0.1-0.1,0.1-0.1C41,23.2,41,22.9,40.8,22.8z M36,25.7v-1.1
		c0-0.2-0.2-0.4-0.4-0.4h-8c-0.1,0-0.2,0-0.3-0.1c-0.1-0.1-0.1-0.2-0.1-0.3v-1.3c0-0.1,0-0.2,0.1-0.3c0.1-0.1,0.2-0.1,0.3-0.1h8
		c0.2,0,0.4-0.2,0.4-0.4v-1.1l3.9,2.6L36,25.7z"/>
	<g>
		<path class="st6" d="M32.2,34.7H14.8c-0.3,0-0.6-0.3-0.6-0.6V12c0-0.3,0.3-0.6,0.6-0.6h17.4c0.3,0,0.6,0.3,0.6,0.6v6.9
			c0,0.3-0.3,0.6-0.6,0.6s-0.6-0.3-0.6-0.6v-6.3H15.4v20.9h16.2l0-6.4c0-0.3,0.3-0.6,0.6-0.6c0,0,0,0,0,0c0.3,0,0.6,0.3,0.6,0.6l0,7
			C32.8,34.4,32.5,34.7,32.2,34.7z"/>
	</g>
</g>
</svg>
