<?xml version="1.0" encoding="utf-8"?>
<!-- Generator: Adobe Illustrator 26.2.1, SVG Export Plug-In . SVG Version: 6.00 Build 0)  -->
<svg version="1.0" id="Capa_1" xmlns="http://www.w3.org/2000/svg" xmlns:xlink="http://www.w3.org/1999/xlink" x="0px" y="0px"
	 viewBox="0 0 60 60.3" style="enable-background:new 0 0 60 60.3;" xml:space="preserve">
<style type="text/css">
	.st0{opacity:0.88;fill:#BC1A18;}
	.st1{opacity:0.88;}
	.st2{fill:#BC1A18;}
	.st3{fill:#BA3938;}
	.st4{fill:#FFFFFF;}
	.st5{fill-rule:evenodd;clip-rule:evenodd;fill:#FFFFFF;}
	.st6{fill:#931914;}
</style>
<g>
	<circle class="st3" cx="29.6" cy="30.5" r="28.9"/>
	<path class="st4" d="M49.6,28.9l-6.1-3.1l6.1-3.1c0.3-0.1,0.4-0.5,0.3-0.8c-0.1-0.1-0.1-0.2-0.3-0.3l-13-6.5
		c-0.2-0.1-0.4-0.1-0.5,0l-6.9,3.5l-6.9-3.5c-0.2-0.1-0.4-0.1-0.5,0l-13,6.5c-0.1,0.1-0.2,0.2-0.3,0.3c0,0.1,0,0.3,0,0.4
		c0.1,0.1,0.1,0.2,0.3,0.3l6.1,3.1l-6.1,3.1c-0.1,0.1-0.2,0.2-0.3,0.3c0,0.1,0,0.3,0,0.4c0.1,0.1,0.1,0.2,0.3,0.3l6.1,3.1v6.4
		c0,0.5,0.1,0.9,0.4,1.3c0.2,0.4,0.6,0.7,1,0.9L28,47.5c0.4,0.2,0.7,0.3,1.1,0.3s0.7-0.1,1.1-0.3l11.8-5.9c0.4-0.2,0.8-0.5,1-0.9
		c0.2-0.4,0.4-0.8,0.4-1.3V33l6.1-3.1c0.3-0.1,0.4-0.5,0.3-0.8C49.8,29.1,49.7,29,49.6,28.9z M29.7,31.4V20.3l11.1,5.6L29.7,31.4z
		 M48,29.4l-11.7,5.8l-5.9-2.9l11.7-5.9L48,29.4z M30.4,19.4l5.9-2.9L48,22.3l-5.9,2.9L30.4,19.4z M42.3,33.6v5.8
		c0,0.3-0.1,0.5-0.2,0.7c-0.1,0.2-0.3,0.4-0.5,0.5l-11.8,5.9c0,0,0,0,0,0V33.3l6.3,3.2c0.2,0.1,0.4,0.1,0.5,0L42.3,33.6z M10.3,22.3
		L22,16.4l5.9,2.9l-11.7,5.8L10.3,22.3z M16.2,26.5l11.7,5.9L22,35.3l-11.7-5.8L16.2,26.5z M17.4,25.8l11.1-5.6l0,11.1L17.4,25.8z
		 M16,33.6l5.7,2.9c0.2,0.1,0.3,0.1,0.5,0l6.3-3.2l0,13.2c0,0,0,0,0,0l-11.8-5.9c-0.2-0.1-0.4-0.3-0.5-0.5c-0.1-0.2-0.2-0.4-0.2-0.7
		V33.6z"/>
</g>
</svg>
