<?xml version="1.0" encoding="utf-8"?>
<!-- Generator: Adobe Illustrator 26.2.1, SVG Export Plug-In . SVG Version: 6.00 Build 0)  -->
<svg version="1.0" id="Capa_1" xmlns="http://www.w3.org/2000/svg" xmlns:xlink="http://www.w3.org/1999/xlink" x="0px" y="0px"
	 viewBox="0 0 60 60.3" style="enable-background:new 0 0 60 60.3;" xml:space="preserve">
<style type="text/css">
	.st0{opacity:0.88;fill:#BC1A18;}
	.st1{opacity:0.88;}
	.st2{fill:#BC1A18;}
	.st3{fill:#BA3938;}
	.st4{fill:#FFFFFF;}
	.st5{fill-rule:evenodd;clip-rule:evenodd;fill:#FFFFFF;}
	.st6{fill:#931914;}
</style>
<path class="st0" d="M34,29.4c2.8-1.9,4.7-5.1,4.7-8.8c0-5.8-4.7-10.5-10.5-10.5c-5.8,0-10.5,4.7-10.5,10.5c0,3.7,1.9,6.9,4.7,8.8
	c-6.7,2.4-11.4,8.8-11.4,16.3c0,1.2,0.1,2.4,0.4,3.5l2.7-0.6v0c-0.2-0.9-0.3-1.9-0.3-2.9c0-4,1.6-7.6,4.3-10.3
	c2.5-2.5,5.9-4.1,9.8-4.2c0.2,0,0.3,0,0.5,0c0.2,0,0.3,0,0.5,0c3.8,0.1,7.2,1.7,9.8,4.2c2.6,2.6,4.3,6.3,4.3,10.3c0,1-0.1,2-0.3,2.9
	l2.7,0.6c0.2-1.1,0.4-2.3,0.4-3.5C45.5,38.2,40.7,31.8,34,29.4z M22.7,26.2c-1.4-1.4-2.3-3.4-2.3-5.5c0-2.2,0.9-4.1,2.3-5.5
	c1.4-1.4,3.4-2.3,5.5-2.3c2.2,0,4.1,0.9,5.5,2.3c1.4,1.4,2.3,3.4,2.3,5.5c0,2.2-0.9,4.1-2.3,5.5c-1.3,1.3-3,2.1-5,2.3
	c-0.2,0-0.3,0-0.5,0c-0.2,0-0.3,0-0.5,0C25.7,28.3,24,27.5,22.7,26.2z"/>
</svg>
