<?xml version="1.0" encoding="utf-8"?>
<!-- Generator: Adobe Illustrator 26.2.1, SVG Export Plug-In . SVG Version: 6.00 Build 0)  -->
<svg version="1.0" id="Capa_1" xmlns="http://www.w3.org/2000/svg" xmlns:xlink="http://www.w3.org/1999/xlink" x="0px" y="0px"
	 viewBox="0 0 60 60.3" style="enable-background:new 0 0 60 60.3;" xml:space="preserve">
<style type="text/css">
	.st0{opacity:0.88;fill:#BC1A18;}
	.st1{opacity:0.88;}
	.st2{fill:#BC1A18;}
	.st3{fill:#BA3938;}
	.st4{fill:#FFFFFF;}
	.st5{fill-rule:evenodd;clip-rule:evenodd;fill:#FFFFFF;}
	.st6{fill:#931914;}
</style>
<g>
	<circle class="st3" cx="29.9" cy="30.4" r="28.9"/>
	<g>
		<path class="st4" d="M29.3,43.8c0.4,0,0.8-0.3,0.8-0.8V25c0-0.4-0.3-0.8-0.8-0.8c-0.4,0-0.8,0.3-0.8,0.8v18
			C28.5,43.5,28.8,43.8,29.3,43.8z"/>
		<path class="st4" d="M33.5,43.8C33.5,43.8,33.5,43.8,33.5,43.8c0.4,0,0.8-0.3,0.8-0.7l1.3-18c0-0.4-0.3-0.8-0.7-0.8
			c-0.4,0-0.8,0.3-0.8,0.7l-1.3,18C32.7,43.4,33.1,43.8,33.5,43.8z"/>
		<path class="st4" d="M24.2,43.1c0,0.4,0.4,0.7,0.7,0.7c0,0,0,0,0.1,0c0.4,0,0.7-0.4,0.7-0.8l-1.3-18c0-0.4-0.4-0.7-0.8-0.7
			c-0.4,0-0.7,0.4-0.7,0.8L24.2,43.1z"/>
		<path class="st4" d="M39.4,20.8H19.1c-0.2,0-0.4,0.1-0.6,0.3c-0.2,0.2-0.2,0.4-0.2,0.6l2,22.2c0.2,1.9,1.8,3.4,3.7,3.4h10.5
			c1.9,0,3.6-1.5,3.7-3.5l1.8-22.2c0-0.2-0.1-0.4-0.2-0.6C39.8,20.9,39.6,20.8,39.4,20.8z M36.8,43.7c-0.1,1.1-1,2-2.2,2H24.1
			c-1.1,0-2.1-0.8-2.2-2l-2-21.4h18.5L36.8,43.7z"/>
		<path class="st4" d="M38,15.7H20.5c-1.8,0-3.3,1.5-3.3,3.3v0.3c0,0.4,0.3,0.7,0.7,0.7h22.9c0.4,0,0.7-0.3,0.7-0.7V19
			C41.4,17.2,39.9,15.7,38,15.7z M18.5,18.7c0.2-1,1-1.7,2-1.7H38c1,0,1.8,0.7,2,1.7H18.5z"/>
		<path class="st4" d="M33,13.9c0-0.5-0.4-0.9-0.9-0.9h-5.7c-0.5,0-0.9,0.4-0.9,0.9v0.9H33V13.9z"/>
	</g>
</g>
</svg>
